NotoSerif-CondensedItalic.ufo
<glyph name="plusminus" format="2">
  <advance width="425"/>
  <unicode hex="00B1"/>
  <outline>
    <contour>
      <point x="74" y="0" type="line"/>
      <point x="413" y="0" type="line"/>
      <point x="413" y="57" type="line"/>
      <point x="74" y="57" type="line"/>
    </contour>
    <component base="plus" xOffset="16"/>
  </outline>
</glyph>
<glyph name="Eth" format="2">
  <advance width="590"/>
  <unicode hex="00D0"/>
  <anchor x="238" y="0" name="bottom"/>
  <anchor x="390" y="714" name="top"/>
  <anchor x="333" y="357" name="center"/>
  <anchor x="665" y="714" name="topright"/>
  <outline>
    <contour>
      <point x="58" y="350" type="line"/>
      <point x="357" y="350" type="line"/>
      <point x="366" y="397" type="line"/>
      <point x="69" y="397" type="line"/>
    </contour>
    <component base="D"/>
  </outline>
</glyph>
<glyph name="Tbar" format="2">
  <advance width="499"/>
  <unicode hex="0166"/>
  <anchor x="193" y="0" name="bottom"/>
  <anchor x="345" y="714" name="top"/>
  <anchor x="288" y="357" name="center"/>
  <anchor x="574" y="714" name="topright"/>
  <outline>
    <contour>
      <point x="94" y="330" type="line"/>
      <point x="229" y="330" type="line"/>
      <point x="317" y="330" type="line"/>
      <point x="459" y="330" type="line"/>
      <point x="467" y="376" type="line"/>
      <point x="327" y="376" type="line"/>
      <point x="239" y="376" type="line"/>
      <point x="103" y="376" type="line"/>
    </contour>
    <component base="T"/>
  </outline>
</glyph>
<glyph name="tbar" format="2">
  <advance width="304"/>
  <unicode hex="0167"/>
  <anchor x="95" y="0" name="bottom"/>
  <anchor x="235" y="659" name="top"/>
  <anchor x="209" y="268" name="center"/>
  <anchor x="341" y="536" name="topright"/>
  <outline>
    <contour>
      <point x="39" y="292" type="line"/>
      <point x="98" y="292" type="line"/>
      <point x="182" y="292" type="line"/>
      <point x="286" y="292" type="line"/>
      <point x="295" y="338" type="line"/>
      <point x="192" y="338" type="line"/>
      <point x="108" y="338" type="line"/>
      <point x="48" y="338" type="line"/>
    </contour>
    <component base="t"/>
  </outline>
</glyph>
<glyph name="uni0191" format="2">
  <advance width="563"/>
  <unicode hex="0191"/>
  <anchor x="89" y="-10" name="bottom"/>
  <anchor x="418" y="714" name="top"/>
  <anchor x="651" y="714" name="topright"/>
  <outline>
    <contour>
      <point x="89" y="-10" type="curve" smooth="yes"/>
      <point x="207" y="-10"/>
      <point x="248" y="59"/>
      <point x="277" y="196" type="curve" smooth="yes"/>
      <point x="304" y="326" type="line"/>
      <point x="497" y="326" type="line"/>
      <point x="507" y="375" type="line"/>
      <point x="314" y="375" type="line"/>
      <point x="375" y="665" type="line"/>
      <point x="501" y="665" type="line" smooth="yes"/>
      <point x="543" y="665"/>
      <point x="559" y="639"/>
      <point x="559" y="603" type="curve" smooth="yes"/>
      <point x="559" y="595"/>
      <point x="555" y="563"/>
      <point x="552" y="540" type="curve"/>
      <point x="598" y="540" type="line"/>
      <point x="631" y="714" type="line"/>
      <point x="218" y="714" type="line"/>
      <point x="208" y="673" type="line"/>
      <point x="219" y="673" type="line" smooth="yes"/>
      <point x="252" y="673"/>
      <point x="276" y="667"/>
      <point x="276" y="635" type="curve" smooth="yes"/>
      <point x="276" y="628"/>
      <point x="273" y="616"/>
      <point x="271" y="605" type="curve" smooth="yes"/>
      <point x="176" y="150" type="line" smooth="yes"/>
      <point x="161" y="76"/>
      <point x="137" y="38"/>
      <point x="89" y="38" type="curve" smooth="yes"/>
      <point x="38" y="38"/>
      <point x="21" y="92"/>
      <point x="24" y="167" type="curve"/>
      <point x="-3" y="167"/>
      <point x="-45" y="148"/>
      <point x="-45" y="91" type="curve" smooth="yes"/>
      <point x="-45" y="26"/>
      <point x="8" y="-10"/>
    </contour>
  </outline>
</glyph>
<glyph name="florin" format="2">
  <advance width="330"/>
  <unicode hex="0192"/>
  <anchor x="49" y="-12" name="bottom"/>
  <anchor x="383" y="770" name="top"/>
  <anchor x="511" y="770" name="topright"/>
  <outline>
    <contour>
      <point x="49" y="-12" type="curve" smooth="yes"/>
      <point x="140" y="-12"/>
      <point x="190" y="54"/>
      <point x="226" y="219" type="curve" smooth="yes"/>
      <point x="282" y="480" type="line"/>
      <point x="374" y="480" type="line"/>
      <point x="386" y="536" type="line"/>
      <point x="294" y="536" type="line"/>
      <point x="307" y="600" type="line" smooth="yes"/>
      <point x="324" y="687"/>
      <point x="341" y="724"/>
      <point x="379" y="724" type="curve" smooth="yes"/>
      <point x="412" y="724"/>
      <point x="419" y="683"/>
      <point x="416" y="633" type="curve"/>
      <point x="464" y="633"/>
      <point x="493" y="653"/>
      <point x="493" y="695" type="curve" smooth="yes"/>
      <point x="493" y="741"/>
      <point x="456" y="770"/>
      <point x="386" y="770" type="curve" smooth="yes"/>
      <point x="292" y="770"/>
      <point x="240" y="705"/>
      <point x="218" y="595" type="curve" smooth="yes"/>
      <point x="205" y="536" type="line"/>
      <point x="129" y="515" type="line"/>
      <point x="121" y="480" type="line"/>
      <point x="194" y="480" type="line"/>
      <point x="137" y="214" type="line" smooth="yes"/>
      <point x="106" y="72"/>
      <point x="91" y="34"/>
      <point x="56" y="34" type="curve" smooth="yes"/>
      <point x="23" y="34"/>
      <point x="16" y="75"/>
      <point x="19" y="125" type="curve"/>
      <point x="-23" y="125"/>
      <point x="-50" y="105"/>
      <point x="-50" y="63" type="curve" smooth="yes"/>
      <point x="-50" y="17"/>
      <point x="-15" y="-12"/>
    </contour>
  </outline>
</glyph>
<glyph name="uni019A" format="2">
  <advance width="254"/>
  <unicode hex="019A"/>
  <anchor x="70" y="0" name="bottom"/>
  <anchor x="232" y="760" name="top"/>
  <anchor x="184" y="268" name="center"/>
  <anchor x="339" y="760" name="topright"/>
  <outline>
    <contour>
      <point x="40" y="366" type="line"/>
      <point x="265" y="366" type="line"/>
      <point x="274" y="411" type="line"/>
      <point x="50" y="411" type="line"/>
    </contour>
    <component base="l"/>
  </outline>
</glyph>
<glyph name="uni01B5" format="2">
  <advance width="497"/>
  <unicode hex="01B5"/>
  <anchor x="192" y="0" name="bottom"/>
  <anchor x="344" y="714" name="top"/>
  <anchor x="572" y="714" name="topright"/>
  <outline>
    <contour>
      <point x="105" y="351" type="line"/>
      <point x="221" y="351" type="line"/>
      <point x="307" y="351" type="line"/>
      <point x="447" y="351" type="line"/>
      <point x="457" y="396" type="line"/>
      <point x="345" y="396" type="line"/>
      <point x="251" y="396" type="line"/>
      <point x="116" y="396" type="line"/>
    </contour>
    <component base="Z"/>
  </outline>
</glyph>
<glyph name="uni01C2" format="2">
  <advance width="436"/>
  <unicode hex="01C2"/>
  <anchor x="164" y="0" name="bottom"/>
  <anchor x="324" y="760" name="top"/>
  <outline>
    <contour>
      <point x="133" y="0" type="line"/>
      <point x="194" y="0" type="line"/>
      <point x="253" y="274" type="line"/>
      <point x="401" y="274" type="line"/>
      <point x="412" y="331" type="line"/>
      <point x="264" y="331" type="line"/>
      <point x="287" y="438" type="line"/>
      <point x="435" y="438" type="line"/>
      <point x="447" y="495" type="line"/>
      <point x="299" y="495" type="line"/>
      <point x="354" y="760" type="line"/>
      <point x="293" y="760" type="line"/>
      <point x="238" y="495" type="line"/>
      <point x="90" y="495" type="line"/>
      <point x="78" y="438" type="line"/>
      <point x="226" y="438" type="line"/>
      <point x="203" y="331" type="line"/>
      <point x="56" y="331" type="line"/>
      <point x="45" y="274" type="line"/>
      <point x="192" y="274" type="line"/>
    </contour>
  </outline>
</glyph>
<glyph name="uni01E5" format="2">
  <advance width="450"/>
  <unicode hex="01E5"/>
  <anchor x="118" y="-240" name="bottom"/>
  <anchor x="293" y="585" name="top"/>
  <anchor x="487" y="536" name="topright"/>
  <outline>
    <contour>
      <point x="152" y="-105" type="line"/>
      <point x="417" y="-105" type="line"/>
      <point x="428" y="-60" type="line"/>
      <point x="162" y="-60" type="line"/>
    </contour>
    <component base="g"/>
  </outline>
</glyph>
<glyph name="uni023B" format="2">
  <advance width="511"/>
  <unicode hex="023B"/>
  <anchor x="247" y="0" name="bottom"/>
  <anchor x="392" y="714" name="top"/>
  <anchor x="586" y="714" name="topright"/>
  <outline>
    <contour>
      <point x="106" y="-84" type="line"/>
      <point x="152" y="-84" type="line"/>
      <point x="481" y="760" type="line"/>
      <point x="433" y="760" type="line"/>
    </contour>
    <component base="C"/>
  </outline>
</glyph>
<glyph name="uni023D" format="2">
  <advance width="505"/>
  <unicode hex="023D"/>
  <anchor x="195" y="0" name="bottom"/>
  <anchor x="347" y="714" name="top"/>
  <anchor x="290" y="357" name="center"/>
  <anchor x="580" y="714" name="topright"/>
  <outline>
    <contour>
      <point x="57" y="350" type="line"/>
      <point x="142" y="350" type="line"/>
      <point x="225" y="350" type="line"/>
      <point x="337" y="350" type="line"/>
      <point x="348" y="398" type="line"/>
      <point x="236" y="398" type="line"/>
      <point x="143" y="398" type="line"/>
      <point x="67" y="398" type="line"/>
    </contour>
    <component base="L"/>
  </outline>
</glyph>
<glyph name="uni0247" format="2">
  <advance width="403"/>
  <unicode hex="0247"/>
  <anchor x="99" y="-211" name="bottom"/>
  <anchor x="296" y="709" name="top"/>
  <anchor x="443" y="536" name="topright"/>
  <outline>
    <contour>
      <point x="64" y="-211" type="line"/>
      <point x="106" y="-211" type="line"/>
      <point x="363" y="709" type="line"/>
      <point x="322" y="709" type="line"/>
    </contour>
    <component base="e"/>
  </outline>
</glyph>
<glyph name="uni0248" format="2">
  <advance width="295"/>
  <unicode hex="0248"/>
  <anchor x="40" y="-240" name="bottom"/>
  <anchor x="243" y="714" name="top"/>
  <anchor x="370" y="714" name="topright"/>
  <outline>
    <contour>
      <point x="34" y="350" type="line"/>
      <point x="316" y="350" type="line"/>
      <point x="327" y="398" type="line"/>
      <point x="45" y="398" type="line"/>
    </contour>
    <component base="J"/>
  </outline>
</glyph>
<glyph name="uni0249" format="2">
  <advance width="243"/>
  <unicode hex="0249"/>
  <anchor x="14" y="-240" name="bottom"/>
  <anchor x="225" y="756" name="top"/>
  <anchor x="326" y="756" name="topright"/>
  <outline>
    <contour>
      <point x="12" y="262" type="line"/>
      <point x="248" y="262" type="line"/>
      <point x="258" y="308" type="line"/>
      <point x="21" y="308" type="line"/>
    </contour>
    <component base="j"/>
  </outline>
</glyph>
<glyph name="uni024E" format="2">
  <advance width="514"/>
  <unicode hex="024E"/>
  <anchor x="201" y="0" name="bottom"/>
  <anchor x="353" y="714" name="top"/>
  <anchor x="589" y="714" name="topright"/>
  <outline>
    <contour>
      <point x="72" y="522" type="line"/>
      <point x="573" y="522" type="line"/>
      <point x="584" y="570" type="line"/>
      <point x="83" y="570" type="line"/>
    </contour>
    <component base="Y"/>
  </outline>
</glyph>
<glyph name="uni024F" format="2">
  <advance width="437"/>
  <unicode hex="024F"/>
  <anchor x="12" y="-240" name="bottom"/>
  <anchor x="248" y="536" name="top"/>
  <anchor x="464" y="536" name="topright"/>
  <outline>
    <contour>
      <point x="16" y="301" type="line"/>
      <point x="457" y="301" type="line"/>
      <point x="468" y="347" type="line"/>
      <point x="26" y="347" type="line"/>
    </contour>
    <component base="y"/>
  </outline>
</glyph>
<glyph name="uni025F" format="2">
  <advance width="243"/>
  <unicode hex="025F"/>
  <anchor x="14" y="-240" name="bottom"/>
  <anchor x="179" y="536" name="top"/>
  <anchor x="278" y="536" name="topright"/>
  <outline>
    <contour>
      <point x="13" y="262" type="line"/>
      <point x="254" y="262" type="line"/>
      <point x="264" y="308" type="line"/>
      <point x="23" y="308" type="line"/>
    </contour>
    <component base="jdotless"/>
  </outline>
</glyph>
<glyph name="uni0268" format="2">
  <advance width="254"/>
  <unicode hex="0268"/>
  <anchor x="70" y="0" name="bottom"/>
  <anchor x="231" y="756" name="top"/>
  <anchor x="337" y="756" name="topright"/>
  <outline>
    <contour>
      <point x="15" y="262" type="line"/>
      <point x="248" y="262" type="line"/>
      <point x="259" y="308" type="line"/>
      <point x="25" y="308" type="line"/>
    </contour>
    <component base="i"/>
  </outline>
</glyph>
<glyph name="uni02A1" format="2">
  <advance width="371"/>
  <unicode hex="02A1"/>
  <anchor x="118" y="0" name="bottom"/>
  <anchor x="292" y="771" name="top"/>
  <anchor x="489" y="760" name="topright"/>
  <outline>
    <contour>
      <point x="22" y="188" type="line"/>
      <point x="277" y="188" type="line"/>
      <point x="286" y="234" type="line"/>
      <point x="32" y="234" type="line"/>
    </contour>
    <component base="uni0294"/>
  </outline>
</glyph>
<glyph name="uni02A2" format="2">
  <advance width="371"/>
  <unicode hex="02A2"/>
  <anchor x="129" y="0" name="bottom"/>
  <anchor x="293" y="771" name="top"/>
  <outline>
    <contour>
      <point x="63" y="188" type="line"/>
      <point x="316" y="188" type="line"/>
      <point x="326" y="234" type="line"/>
      <point x="72" y="234" type="line"/>
    </contour>
    <component base="uni0295"/>
  </outline>
</glyph>
<glyph name="uni02C0" format="2">
  <advance width="242"/>
  <unicode hex="02C0"/>
  <outline>
    <contour>
      <point x="146" y="486" type="line"/>
      <point x="196" y="486" type="line"/>
      <point x="209" y="545" type="line"/>
      <point x="284" y="576"/>
      <point x="316" y="613"/>
      <point x="316" y="670" type="curve" smooth="yes"/>
      <point x="316" y="728"/>
      <point x="280" y="760"/>
      <point x="223" y="760" type="curve" smooth="yes"/>
      <point x="159" y="760"/>
      <point x="112" y="731"/>
      <point x="112" y="681" type="curve" smooth="yes"/>
      <point x="112" y="655"/>
      <point x="133" y="647"/>
      <point x="161" y="647" type="curve"/>
      <point x="171" y="702"/>
      <point x="190" y="723"/>
      <point x="218" y="723" type="curve" smooth="yes"/>
      <point x="235" y="722"/>
      <point x="251" y="709"/>
      <point x="251" y="674" type="curve" smooth="yes"/>
      <point x="251" y="630"/>
      <point x="226" y="596"/>
      <point x="162" y="563" type="curve"/>
    </contour>
  </outline>
</glyph>
<glyph name="macron" format="2">
  <advance width="314"/>
  <unicode hex="02C9"/>
  <outline>
    <contour>
      <point x="112" y="606" type="line"/>
      <point x="344" y="606" type="line"/>
      <point x="358" y="662" type="line"/>
      <point x="126" y="662" type="line"/>
    </contour>
  </outline>
</glyph>
<glyph name="uni02D5" format="2">
  <advance width="272"/>
  <unicode hex="02D5"/>
  <outline>
    <contour>
      <point x="102" y="196" type="line"/>
      <point x="142" y="196" type="line"/>
      <point x="166" y="308" type="line"/>
      <point x="251" y="308" type="line"/>
      <point x="259" y="348" type="line"/>
      <point x="47" y="348" type="line"/>
      <point x="39" y="308" type="line"/>
      <point x="126" y="308" type="line"/>
    </contour>
  </outline>
</glyph>
<glyph name="uni02DF" format="2">
  <advance width="269"/>
  <unicode hex="02DF"/>
  <outline>
    <contour>
      <point x="171" y="607" type="line"/>
      <point x="224" y="659" type="line"/>
      <point x="276" y="607" type="line"/>
      <point x="307" y="637" type="line"/>
      <point x="254" y="689" type="line"/>
      <point x="307" y="742" type="line"/>
      <point x="276" y="772" type="line"/>
      <point x="224" y="719" type="line"/>
      <point x="171" y="772" type="line"/>
      <point x="141" y="742" type="line"/>
      <point x="194" y="689" type="line"/>
      <point x="141" y="637" type="line"/>
    </contour>
  </outline>
</glyph>
<glyph name="tonos" format="2">
  <advance width="462"/>
  <unicode hex="0384"/>
  <anchor x="266" y="536" name="_top"/>
  <outline>
    <contour>
      <point x="236" y="606" type="line"/>
      <point x="270" y="606" type="line"/>
      <point x="309" y="651"/>
      <point x="371" y="746"/>
      <point x="388" y="784" type="curve"/>
      <point x="392" y="796" type="line"/>
      <point x="309" y="796" type="line"/>
      <point x="294" y="748"/>
      <point x="255" y="656"/>
      <point x="238" y="617" type="curve"/>
    </contour>
  </outline>
</glyph>
<glyph name="afii10088" format="2">
  <advance width="495"/>
  <unicode hex="0446"/>
  <anchor x="142" y="-229" name="bottom"/>
  <anchor x="304" y="536" name="top"/>
  <anchor x="532" y="536" name="topright"/>
  <outline>
    <contour>
      <point x="339" y="-229" type="curve" smooth="yes"/>
      <point x="418" y="-229"/>
      <point x="450" y="-168"/>
      <point x="484" y="45" type="curve"/>
      <point x="469" y="73" type="line"/>
      <point x="434" y="7" type="line"/>
      <point x="406" y="-112"/>
      <point x="361" y="-179"/>
      <point x="316" y="-179" type="curve" smooth="yes"/>
      <point x="298" y="-179"/>
      <point x="285" y="-175"/>
      <point x="272" y="-171" type="curve"/>
      <point x="261" y="-211" type="line"/>
      <point x="283" y="-222"/>
      <point x="306" y="-229"/>
    </contour>
    <component base="u"/>
  </outline>
</glyph>
<glyph name="afii10091" format="2">
  <advance width="735"/>
  <unicode hex="0449"/>
  <anchor x="310" y="0" name="bottom"/>
  <anchor x="424" y="536" name="top"/>
  <outline>
    <contour>
      <point x="573" y="-228" type="curve" smooth="yes"/>
      <point x="653" y="-228"/>
      <point x="684" y="-169"/>
      <point x="720" y="45" type="curve"/>
      <point x="706" y="72" type="line"/>
      <point x="670" y="6" type="line"/>
      <point x="641" y="-112"/>
      <point x="596" y="-178"/>
      <point x="549" y="-178" type="curve" smooth="yes"/>
      <point x="532" y="-178"/>
      <point x="519" y="-174"/>
      <point x="507" y="-171" type="curve"/>
      <point x="496" y="-210" type="line"/>
      <point x="518" y="-221"/>
      <point x="541" y="-228"/>
    </contour>
    <component base="afii10090"/>
  </outline>
</glyph>
<glyph name="uni0463" format="2">
  <advance width="436"/>
  <unicode hex="0463"/>
  <anchor x="161" y="0" name="bottom"/>
  <anchor x="323" y="760" name="top"/>
  <outline>
    <contour>
      <point x="220" y="-10" type="curve" smooth="yes"/>
      <point x="326" y="-10"/>
      <point x="410" y="54"/>
      <point x="410" y="176" type="curve" smooth="yes"/>
      <point x="410" y="254"/>
      <point x="364" y="309"/>
      <point x="258" y="309" type="curve" smooth="yes"/>
      <point x="240" y="309"/>
      <point x="209" y="306"/>
      <point x="179" y="302" type="curve"/>
      <point x="213" y="461" type="line"/>
      <point x="330" y="461" type="line"/>
      <point x="340" y="507" type="line"/>
      <point x="223" y="507" type="line"/>
      <point x="276" y="760" type="line"/>
      <point x="116" y="760" type="line"/>
      <point x="107" y="719" type="line"/>
      <point x="119" y="719" type="line" smooth="yes"/>
      <point x="146" y="719"/>
      <point x="168" y="712"/>
      <point x="168" y="678" type="curve" smooth="yes"/>
      <point x="168" y="663"/>
      <point x="164" y="649"/>
      <point x="159" y="628" type="curve" smooth="yes"/>
      <point x="134" y="507" type="line"/>
      <point x="60" y="507" type="line"/>
      <point x="51" y="461" type="line"/>
      <point x="125" y="461" type="line"/>
      <point x="83" y="265" type="line" smooth="yes"/>
      <point x="73" y="217"/>
      <point x="64" y="173"/>
      <point x="64" y="136" type="curve" smooth="yes"/>
      <point x="64" y="36"/>
      <point x="117" y="-10"/>
    </contour>
    <contour>
      <point x="226" y="37" type="curve" smooth="yes"/>
      <point x="179" y="37"/>
      <point x="152" y="68"/>
      <point x="152" y="134" type="curve" smooth="yes"/>
      <point x="152" y="163"/>
      <point x="162" y="221"/>
      <point x="168" y="251" type="curve"/>
      <point x="183" y="254"/>
      <point x="208" y="257"/>
      <point x="241" y="257" type="curve" smooth="yes"/>
      <point x="290" y="257"/>
      <point x="317" y="226"/>
      <point x="317" y="172" type="curve" smooth="yes"/>
      <point x="317" y="102"/>
      <point x="287" y="37"/>
    </contour>
  </outline>
</glyph>
<glyph name="uni0488" format="2">
  <advance width="782"/>
  <unicode hex="0488"/>
  <outline>
    <contour>
      <point x="530" y="462" type="curve"/>
      <point x="559" y="462" type="line"/>
      <point x="562" y="501"/>
      <point x="579" y="505"/>
      <point x="610" y="505" type="curve" smooth="yes"/>
      <point x="637" y="505"/>
      <point x="659" y="499"/>
      <point x="662" y="462" type="curve"/>
      <point x="693" y="462" type="line"/>
      <point x="689" y="518"/>
      <point x="661" y="557"/>
      <point x="610" y="557" type="curve" smooth="yes"/>
      <point x="558" y="557"/>
      <point x="533" y="520"/>
    </contour>
    <contour>
      <point x="85" y="-20" type="curve"/>
      <point x="114" y="-20" type="line"/>
      <point x="117" y="19"/>
      <point x="134" y="23"/>
      <point x="165" y="23" type="curve" smooth="yes"/>
      <point x="191" y="23"/>
      <point x="213" y="17"/>
      <point x="217" y="-20" type="curve"/>
      <point x="248" y="-20" type="line"/>
      <point x="244" y="36"/>
      <point x="216" y="75"/>
      <point x="165" y="75" type="curve" smooth="yes"/>
      <point x="112" y="75"/>
      <point x="87" y="38"/>
    </contour>
    <contour>
      <point x="306" y="-156" type="curve"/>
      <point x="336" y="-156" type="line"/>
      <point x="339" y="-117"/>
      <point x="355" y="-113"/>
      <point x="387" y="-113" type="curve" smooth="yes"/>
      <point x="412" y="-113"/>
      <point x="435" y="-119"/>
      <point x="439" y="-156" type="curve"/>
      <point x="469" y="-156" type="line"/>
      <point x="465" y="-100"/>
      <point x="438" y="-61"/>
      <point x="387" y="-61" type="curve" smooth="yes"/>
      <point x="333" y="-61"/>
      <point x="308" y="-98"/>
    </contour>
    <contour>
      <point x="16" y="224" type="curve"/>
      <point x="45" y="224" type="line"/>
      <point x="48" y="263"/>
      <point x="64" y="267"/>
      <point x="96" y="267" type="curve" smooth="yes"/>
      <point x="123" y="267"/>
      <point x="145" y="261"/>
      <point x="148" y="224" type="curve"/>
      <point x="179" y="224" type="line"/>
      <point x="176" y="280"/>
      <point x="147" y="319"/>
      <point x="96" y="319" type="curve" smooth="yes"/>
      <point x="44" y="319"/>
      <point x="18" y="282"/>
    </contour>
    <contour>
      <point x="85" y="462" type="curve"/>
      <point x="114" y="462" type="line"/>
      <point x="117" y="501"/>
      <point x="134" y="505"/>
      <point x="165" y="505" type="curve" smooth="yes"/>
      <point x="191" y="505"/>
      <point x="213" y="499"/>
      <point x="217" y="462" type="curve"/>
      <point x="248" y="462" type="line"/>
      <point x="244" y="518"/>
      <point x="216" y="557"/>
      <point x="165" y="557" type="curve" smooth="yes"/>
      <point x="112" y="557"/>
      <point x="87" y="520"/>
    </contour>
    <contour>
      <point x="530" y="-20" type="curve"/>
      <point x="559" y="-20" type="line"/>
      <point x="562" y="19"/>
      <point x="579" y="23"/>
      <point x="610" y="23" type="curve" smooth="yes"/>
      <point x="637" y="23"/>
      <point x="659" y="17"/>
      <point x="662" y="-20" type="curve"/>
      <point x="693" y="-20" type="line"/>
      <point x="689" y="36"/>
      <point x="661" y="75"/>
      <point x="610" y="75" type="curve" smooth="yes"/>
      <point x="558" y="75"/>
      <point x="533" y="38"/>
    </contour>
    <contour>
      <point x="603" y="224" type="curve"/>
      <point x="633" y="224" type="line"/>
      <point x="636" y="263"/>
      <point x="653" y="267"/>
      <point x="684" y="267" type="curve" smooth="yes"/>
      <point x="710" y="267"/>
      <point x="732" y="261"/>
      <point x="736" y="224" type="curve"/>
      <point x="766" y="224" type="line"/>
      <point x="763" y="280"/>
      <point x="735" y="319"/>
      <point x="684" y="319" type="curve" smooth="yes"/>
      <point x="632" y="319"/>
      <point x="605" y="282"/>
    </contour>
    <contour>
      <point x="306" y="601" type="curve"/>
      <point x="336" y="601" type="line"/>
      <point x="339" y="640"/>
      <point x="355" y="644"/>
      <point x="387" y="644" type="curve" smooth="yes"/>
      <point x="412" y="644"/>
      <point x="435" y="638"/>
      <point x="439" y="601" type="curve"/>
      <point x="469" y="601" type="line"/>
      <point x="465" y="657"/>
      <point x="438" y="696"/>
      <point x="387" y="696" type="curve" smooth="yes"/>
      <point x="333" y="696"/>
      <point x="308" y="659"/>
    </contour>
  </outline>
</glyph>
<glyph name="uni04AD" format="2">
  <advance width="732"/>
  <unicode hex="04AD"/>
  <anchor x="262" y="-225" name="bottom"/>
  <anchor x="424" y="536" name="top"/>
  <anchor x="769" y="536" name="topright"/>
  <outline>
    <contour>
      <point x="561" y="-225" type="curve" smooth="yes"/>
      <point x="673" y="-225"/>
      <point x="692" y="-123"/>
      <point x="721" y="46" type="curve"/>
      <point x="707" y="74" type="line"/>
      <point x="670" y="8" type="line"/>
      <point x="641" y="-109"/>
      <point x="596" y="-176"/>
      <point x="550" y="-176" type="curve" smooth="yes"/>
      <point x="531" y="-176"/>
      <point x="518" y="-172"/>
      <point x="506" y="-168" type="curve"/>
      <point x="494" y="-207" type="line"/>
      <point x="515" y="-219"/>
      <point x="533" y="-225"/>
    </contour>
    <component base="m"/>
  </outline>
</glyph>
<glyph name="uni04B0" format="2">
  <advance width="514"/>
  <unicode hex="04B0"/>
  <anchor x="201" y="0" name="bottom"/>
  <anchor x="353" y="714" name="top"/>
  <anchor x="589" y="714" name="topright"/>
  <outline>
    <contour>
      <point x="97" y="200" type="line"/>
      <point x="415" y="200" type="line"/>
      <point x="424" y="248" type="line"/>
      <point x="107" y="248" type="line"/>
    </contour>
    <component base="Y"/>
  </outline>
</glyph>
<glyph name="uni04BE" format="2">
  <advance width="643"/>
  <unicode hex="04BE"/>
  <anchor x="220" y="-210" name="bottom"/>
  <anchor x="417" y="714" name="top"/>
  <outline>
    <contour>
      <point x="280" y="-210" type="curve"/>
      <point x="322" y="-210" type="line"/>
      <point x="351" y="-81"/>
      <point x="369" y="-22"/>
      <point x="444" y="7" type="curve"/>
      <point x="232" y="35" type="line"/>
      <point x="274" y="-3"/>
      <point x="295" y="-30"/>
      <point x="295" y="-103" type="curve" smooth="yes"/>
      <point x="295" y="-136"/>
      <point x="290" y="-168"/>
    </contour>
    <component base="uni04BC"/>
  </outline>
</glyph>
<glyph name="uni04BF" format="2">
  <advance width="494"/>
  <unicode hex="04BF"/>
  <anchor x="145" y="-210" name="bottom"/>
  <anchor x="304" y="536" name="top"/>
  <outline>
    <contour>
      <point x="211" y="-210" type="curve"/>
      <point x="252" y="-210" type="line"/>
      <point x="278" y="-86"/>
      <point x="289" y="-39"/>
      <point x="335" y="-1" type="curve"/>
      <point x="192" y="27" type="line"/>
      <point x="220" y="1"/>
      <point x="230" y="-27"/>
      <point x="230" y="-71" type="curve" smooth="yes"/>
      <point x="230" y="-108"/>
      <point x="222" y="-148"/>
    </contour>
    <component base="uni04BD"/>
  </outline>
</glyph>
<glyph name="uni04E8" format="2">
  <advance width="604"/>
  <unicode hex="04E8"/>
  <anchor x="246" y="0" name="bottom"/>
  <anchor x="398" y="714" name="top"/>
  <anchor x="341" y="357" name="center"/>
  <anchor x="679" y="714" name="topright"/>
  <outline>
    <contour>
      <point x="117" y="345" type="line"/>
      <point x="541" y="345" type="line"/>
      <point x="544" y="398" type="line"/>
      <point x="119" y="398" type="line"/>
    </contour>
    <component base="O"/>
  </outline>
</glyph>
<glyph name="uni04E9" format="2">
  <advance width="469"/>
  <unicode hex="04E9"/>
  <anchor x="178" y="0" name="bottom"/>
  <anchor x="292" y="536" name="top"/>
  <anchor x="292" y="268" name="center"/>
  <anchor x="506" y="536" name="topright"/>
  <outline>
    <contour>
      <point x="95" y="255" type="line"/>
      <point x="400" y="255" type="line"/>
      <point x="400" y="303" type="line"/>
      <point x="95" y="303" type="line"/>
    </contour>
    <component base="o"/>
  </outline>
</glyph>
<glyph name="uni051E" format="2">
  <advance width="571"/>
  <unicode hex="051E"/>
  <anchor x="228" y="0" name="bottom"/>
  <anchor x="380" y="714" name="top"/>
  <outline>
    <contour>
      <point x="486" y="428" type="line"/>
      <point x="515" y="461" type="line"/>
      <point x="352" y="617" type="line"/>
      <point x="324" y="585" type="line"/>
    </contour>
    <component base="afii10028"/>
  </outline>
</glyph>
<glyph name="uni1AB9" format="2">
  <unicode hex="1AB9"/>
  <anchor x="-323" y="0" name="_bottom"/>
  <anchor x="-343" y="-240" name="bottom"/>
  <outline>
    <contour>
      <point x="-369" y="-240" type="line"/>
      <point x="-277" y="26" type="line"/>
      <point x="-320" y="41" type="line"/>
      <point x="-411" y="-224" type="line"/>
    </contour>
  </outline>
</glyph>
<glyph name="uni1ABA" format="2">
  <unicode hex="1ABA"/>
  <anchor x="-332" y="0" name="_bottom"/>
  <anchor x="-356" y="-279" name="bottom"/>
  <outline>
    <contour>
      <point x="-370" y="-240" type="line"/>
      <point x="-279" y="26" type="line"/>
      <point x="-320" y="41" type="line"/>
      <point x="-412" y="-224" type="line"/>
    </contour>
    <contour>
      <point x="-390" y="-279" type="curve" smooth="yes"/>
      <point x="-362" y="-279"/>
      <point x="-340" y="-257"/>
      <point x="-340" y="-221" type="curve" smooth="yes"/>
      <point x="-340" y="-189"/>
      <point x="-359" y="-168"/>
      <point x="-386" y="-168" type="curve" smooth="yes"/>
      <point x="-414" y="-168"/>
      <point x="-436" y="-191"/>
      <point x="-436" y="-227" type="curve" smooth="yes"/>
      <point x="-436" y="-259"/>
      <point x="-416" y="-279"/>
    </contour>
  </outline>
</glyph>
<glyph name="uni1D09" format="2">
  <advance width="254"/>
  <unicode hex="1D09"/>
  <anchor x="32" y="-180" name="bottom"/>
  <anchor x="184" y="536" name="top"/>
  <outline>
    <contour>
      <point x="-15" y="0" type="line"/>
      <point x="185" y="0" type="line"/>
      <point x="194" y="41" type="line"/>
      <point x="179" y="41" type="line" smooth="yes"/>
      <point x="157" y="41"/>
      <point x="143" y="43"/>
      <point x="144" y="66" type="curve" smooth="yes"/>
      <point x="144" y="70"/>
      <point x="146" y="80"/>
      <point x="148" y="85" type="curve"/>
      <point x="223" y="443" type="line" smooth="yes"/>
      <point x="233" y="488"/>
      <point x="253" y="495"/>
      <point x="276" y="495" type="curve" smooth="yes"/>
      <point x="291" y="495" type="line"/>
      <point x="301" y="536" type="line"/>
      <point x="101" y="536" type="line"/>
      <point x="91" y="495" type="line"/>
      <point x="108" y="495" type="line" smooth="yes"/>
      <point x="127" y="495"/>
      <point x="142" y="492"/>
      <point x="142" y="471" type="curve" smooth="yes"/>
      <point x="142" y="465"/>
      <point x="139" y="456"/>
      <point x="138" y="450" type="curve"/>
      <point x="62" y="93" type="line" smooth="yes"/>
      <point x="52" y="47"/>
      <point x="32" y="41"/>
      <point x="9" y="41" type="curve" smooth="yes"/>
      <point x="-5" y="41" type="line"/>
    </contour>
    <contour>
      <point x="58" y="-180" type="curve" smooth="yes"/>
      <point x="83" y="-180"/>
      <point x="114" y="-157"/>
      <point x="114" y="-100" type="curve" smooth="yes"/>
      <point x="114" y="-72"/>
      <point x="100" y="-55"/>
      <point x="73" y="-55" type="curve" smooth="yes"/>
      <point x="41" y="-55"/>
      <point x="18" y="-88"/>
      <point x="18" y="-132" type="curve" smooth="yes"/>
      <point x="19" y="-163"/>
      <point x="32" y="-180"/>
    </contour>
  </outline>
</glyph>
<glyph name="uni1D24" format="2">
  <advance width="392"/>
  <unicode hex="1D24"/>
  <anchor x="157" y="0" name="bottom"/>
  <anchor x="310" y="760" name="top"/>
  <outline>
    <contour>
      <point x="150" y="-10" type="curve" smooth="yes"/>
      <point x="252" y="-10"/>
      <point x="317" y="56"/>
      <point x="317" y="124" type="curve" smooth="yes"/>
      <point x="317" y="157"/>
      <point x="294" y="178"/>
      <point x="251" y="178" type="curve"/>
      <point x="247" y="103"/>
      <point x="220" y="33"/>
      <point x="157" y="33" type="curve" smooth="yes"/>
      <point x="113" y="33"/>
      <point x="84" y="70"/>
      <point x="84" y="129" type="curve" smooth="yes"/>
      <point x="84" y="228"/>
      <point x="153" y="280"/>
      <point x="251" y="318" type="curve"/>
      <point x="272" y="418" type="line"/>
      <point x="381" y="464"/>
      <point x="461" y="524"/>
      <point x="461" y="631" type="curve" smooth="yes"/>
      <point x="461" y="719"/>
      <point x="405" y="770"/>
      <point x="311" y="770" type="curve" smooth="yes"/>
      <point x="209" y="770"/>
      <point x="144" y="705"/>
      <point x="144" y="637" type="curve" smooth="yes"/>
      <point x="144" y="603"/>
      <point x="167" y="583"/>
      <point x="210" y="583" type="curve"/>
      <point x="214" y="658"/>
      <point x="241" y="728"/>
      <point x="304" y="728" type="curve" smooth="yes"/>
      <point x="348" y="728"/>
      <point x="377" y="691"/>
      <point x="377" y="632" type="curve" smooth="yes"/>
      <point x="377" y="533"/>
      <point x="308" y="481"/>
      <point x="210" y="443" type="curve"/>
      <point x="189" y="343" type="line"/>
      <point x="81" y="297"/>
      <point x="0" y="237"/>
      <point x="0" y="130" type="curve" smooth="yes"/>
      <point x="0" y="41"/>
      <point x="56" y="-10"/>
    </contour>
  </outline>
</glyph>
<glyph name="uni1D2F" format="2">
  <advance width="346"/>
  <unicode hex="1D2F"/>
  <anchor x="188.85" y="287.0" name="bottom"/>
  <anchor x="287.65" y="715.4" name="top"/>
  <anchor x="446.90000000000003" y="715.4" name="topright"/>
  <outline>
    <contour>
      <point x="85" y="497" type="line"/>
      <point x="403" y="497" type="line"/>
      <point x="409" y="526" type="line"/>
      <point x="92" y="526" type="line"/>
    </contour>
    <component base="B" xScale="0.65" yScale="0.6" xOffset="53" yOffset="287"/>
  </outline>
</glyph>
<glyph name="uni1D7A" format="2">
  <advance width="780"/>
  <unicode hex="1D7A"/>
  <anchor x="95" y="0" name="bottom_1"/>
  <anchor x="478" y="0" name="bottom_2"/>
  <anchor x="149" y="268" name="center_1"/>
  <anchor x="592" y="268" name="center_2"/>
  <anchor x="235" y="659" name="top_1"/>
  <anchor x="640" y="760" name="top_2"/>
  <anchor x="311" y="960" name="topright_1"/>
  <anchor x="865" y="760" name="topright_2"/>
  <outline>
    <contour>
      <point x="-28" y="-145" type="line"/>
      <point x="30" y="-145" type="line"/>
      <point x="693" y="760" type="line"/>
      <point x="637" y="760" type="line"/>
    </contour>
    <component base="t"/>
    <component base="h" xOffset="283"/>
  </outline>
</glyph>
<glyph name="uni1D7B" format="2">
  <advance width="276"/>
  <unicode hex="1D7B"/>
  <anchor x="91" y="0" name="bottom"/>
  <anchor x="205" y="536" name="top"/>
  <outline>
    <contour>
      <point x="20" y="262" type="line"/>
      <point x="249" y="262" type="line"/>
      <point x="259" y="307" type="line"/>
      <point x="31" y="307" type="line"/>
    </contour>
    <component base="uni026A"/>
  </outline>
</glyph>
<glyph name="uni1D7C" format="2">
  <advance width="257"/>
  <unicode hex="1D7C"/>
  <anchor x="114" y="0" name="bottom"/>
  <anchor x="186" y="536" name="top"/>
  <outline>
    <contour>
      <point x="15" y="262" type="line"/>
      <point x="260" y="262" type="line"/>
      <point x="270" y="307" type="line"/>
      <point x="25" y="307" type="line"/>
    </contour>
    <component base="iota"/>
  </outline>
</glyph>
<glyph name="uni1D82" format="2">
  <advance width="351"/>
  <unicode hex="1D82"/>
  <anchor x="-75" y="-240" name="bottom"/>
  <anchor x="326" y="770" name="top"/>
  <anchor x="454" y="770" name="topright"/>
  <outline>
    <contour>
      <point x="178" y="-197" type="curve" smooth="yes"/>
      <point x="242" y="-197"/>
      <point x="274" y="-148"/>
      <point x="293" y="-55" type="curve" smooth="yes"/>
      <point x="329" y="122" type="line"/>
      <point x="131" y="122" type="line"/>
      <point x="120" y="72" type="line"/>
      <point x="268" y="72" type="line"/>
      <point x="243" y="-49" type="line" smooth="yes"/>
      <point x="231" y="-111"/>
      <point x="211" y="-129"/>
      <point x="180" y="-129" type="curve" smooth="yes"/>
      <point x="162" y="-129"/>
      <point x="150" y="-122"/>
      <point x="138" y="-111" type="curve"/>
      <point x="125" y="-122"/>
      <point x="117" y="-134"/>
      <point x="117" y="-150" type="curve" smooth="yes"/>
      <point x="117" y="-179"/>
      <point x="141" y="-197"/>
    </contour>
    <component base="f"/>
  </outline>
</glyph>
<glyph name="doublecircumflexabove" format="2">
  <unicode hex="1DCD"/>
  <anchor x="42" y="536" name="_top"/>
  <anchor x="76" y="764" name="top"/>
  <outline>
    <contour>
      <point x="-151" y="606" type="line"/>
      <point x="-115" y="606" type="line"/>
      <point x="-46" y="629"/>
      <point x="28" y="664"/>
      <point x="87" y="696" type="curve"/>
      <point x="133" y="664"/>
      <point x="195" y="629"/>
      <point x="258" y="606" type="curve"/>
      <point x="294" y="606" type="line"/>
      <point x="296" y="618" type="line"/>
      <point x="245" y="657"/>
      <point x="172" y="720"/>
      <point x="140" y="764" type="curve"/>
      <point x="64" y="764" type="line"/>
      <point x="15" y="720"/>
      <point x="-83" y="656"/>
      <point x="-148" y="618" type="curve"/>
    </contour>
  </outline>
</glyph>
<glyph name="uni1E11" format="2">
  <advance width="481"/>
  <unicode hex="1E11"/>
  <anchor x="136" y="-240" name="bottom"/>
  <anchor x="346" y="760" name="top"/>
  <anchor x="298" y="268" name="center"/>
  <anchor x="558" y="760" name="topright"/>
  <outline>
    <contour>
      <point x="128" y="-240" type="curve" smooth="yes"/>
      <point x="200" y="-240"/>
      <point x="257" y="-206"/>
      <point x="257" y="-122" type="curve" smooth="yes"/>
      <point x="257" y="-80"/>
      <point x="231" y="-51"/>
      <point x="193" y="-40" type="curve"/>
      <point x="225" y="32" type="line"/>
      <point x="183" y="32" type="line"/>
      <point x="139" y="-71" type="line"/>
      <point x="169" y="-75"/>
      <point x="190" y="-94"/>
      <point x="190" y="-123" type="curve" smooth="yes"/>
      <point x="190" y="-170"/>
      <point x="161" y="-191"/>
      <point x="127" y="-191" type="curve" smooth="yes"/>
      <point x="112" y="-191"/>
      <point x="92" y="-188"/>
      <point x="74" y="-183" type="curve"/>
      <point x="62" y="-229" type="line"/>
      <point x="82" y="-236"/>
      <point x="105" y="-240"/>
    </contour>
    <component base="d"/>
  </outline>
</glyph>
<glyph name="uni1FCD" format="2">
  <advance width="230"/>
  <unicode hex="1FCD"/>
  <anchor x="161" y="536" name="_top"/>
  <anchor x="185" y="724" name="top"/>
  <outline>
    <contour>
      <point x="60" y="547" type="line"/>
      <point x="144" y="555"/>
      <point x="183" y="598"/>
      <point x="183" y="669" type="curve" smooth="yes"/>
      <point x="183" y="706"/>
      <point x="163" y="724"/>
      <point x="136" y="724" type="curve" smooth="yes"/>
      <point x="108" y="724"/>
      <point x="90" y="710"/>
      <point x="90" y="680" type="curve" smooth="yes"/>
      <point x="90" y="643"/>
      <point x="130" y="646"/>
      <point x="130" y="627" type="curve" smooth="yes"/>
      <point x="130" y="600"/>
      <point x="108" y="586"/>
      <point x="63" y="580" type="curve"/>
    </contour>
    <contour>
      <point x="269" y="560" type="curve"/>
      <point x="302" y="560" type="line"/>
      <point x="305" y="573" type="line"/>
      <point x="294" y="606"/>
      <point x="286" y="683"/>
      <point x="285" y="714" type="curve"/>
      <point x="207" y="714" type="line"/>
      <point x="205" y="704" type="line"/>
      <point x="217" y="666"/>
      <point x="242" y="605"/>
    </contour>
  </outline>
</glyph>
<glyph name="uni1FCE" format="2">
  <advance width="231"/>
  <unicode hex="1FCE"/>
  <anchor x="179" y="536" name="_top"/>
  <anchor x="202" y="724" name="top"/>
  <outline>
    <contour>
      <point x="66" y="547" type="line"/>
      <point x="150" y="555"/>
      <point x="188" y="598"/>
      <point x="188" y="669" type="curve" smooth="yes"/>
      <point x="188" y="706"/>
      <point x="169" y="724"/>
      <point x="141" y="724" type="curve" smooth="yes"/>
      <point x="113" y="724"/>
      <point x="96" y="710"/>
      <point x="96" y="680" type="curve" smooth="yes"/>
      <point x="96" y="643"/>
      <point x="135" y="646"/>
      <point x="135" y="627" type="curve" smooth="yes"/>
      <point x="135" y="600"/>
      <point x="114" y="586"/>
      <point x="69" y="580" type="curve"/>
    </contour>
    <contour>
      <point x="200" y="560" type="line"/>
      <point x="231" y="560" type="line"/>
      <point x="274" y="609"/>
      <point x="317" y="667"/>
      <point x="333" y="702" type="curve"/>
      <point x="334" y="714" type="line"/>
      <point x="258" y="714" type="line"/>
      <point x="246" y="678"/>
      <point x="223" y="618"/>
      <point x="202" y="575" type="curve"/>
    </contour>
  </outline>
</glyph>
<glyph name="uni1FEF" format="2">
  <advance width="270"/>
  <unicode hex="1FEF"/>
  <anchor x="177" y="536" name="_top"/>
  <anchor x="213" y="771" name="top"/>
  <outline>
    <contour>
      <point x="224" y="618" type="curve"/>
      <point x="260" y="618" type="line"/>
      <point x="263" y="631" type="line"/>
      <point x="252" y="664"/>
      <point x="245" y="741"/>
      <point x="245" y="771" type="curve"/>
      <point x="161" y="771" type="line"/>
      <point x="158" y="762" type="line"/>
      <point x="170" y="724"/>
      <point x="193" y="662"/>
    </contour>
  </outline>
</glyph>
<glyph name="uni1FFD" format="2">
  <advance width="271"/>
  <unicode hex="1FFD"/>
  <anchor x="199" y="536" name="_top"/>
  <anchor x="231" y="756" name="top"/>
  <outline>
    <contour>
      <point x="162" y="603" type="line"/>
      <point x="200" y="603" type="line"/>
      <point x="234" y="642"/>
      <point x="277" y="706"/>
      <point x="296" y="747" type="curve"/>
      <point x="297" y="756" type="line"/>
      <point x="211" y="756" type="line"/>
      <point x="200" y="720"/>
      <point x="182" y="649"/>
      <point x="163" y="616" type="curve"/>
    </contour>
  </outline>
</glyph>
<glyph name="equalsuperior" format="2">
  <advance width="313"/>
  <unicode hex="207C"/>
  <outline>
    <contour>
      <point x="25" y="535" type="line"/>
      <point x="288" y="535" type="line"/>
      <point x="288" y="578" type="line"/>
      <point x="25" y="578" type="line"/>
    </contour>
    <contour>
      <point x="25" y="384" type="line"/>
      <point x="288" y="384" type="line"/>
      <point x="288" y="427" type="line"/>
      <point x="25" y="427" type="line"/>
    </contour>
  </outline>
</glyph>
<glyph name="parenleftsuperior" format="2">
  <advance width="200"/>
  <unicode hex="207D"/>
  <outline>
    <contour>
      <point x="171" y="197" type="curve"/>
      <point x="181" y="241" type="line"/>
      <point x="145" y="277"/>
      <point x="133" y="354"/>
      <point x="133" y="418" type="curve" smooth="yes"/>
      <point x="133" y="562"/>
      <point x="175" y="672"/>
      <point x="288" y="747" type="curve"/>
      <point x="297" y="789" type="line"/>
      <point x="144" y="755"/>
      <point x="60" y="612"/>
      <point x="60" y="423" type="curve" smooth="yes"/>
      <point x="60" y="329"/>
      <point x="94" y="233"/>
    </contour>
  </outline>
</glyph>
<glyph name="parenleftinferior" format="2">
  <advance width="200"/>
  <unicode hex="208D"/>
  <outline>
    <contour>
      <point x="86" y="-288" type="curve"/>
      <point x="96" y="-244" type="line"/>
      <point x="60" y="-208"/>
      <point x="48" y="-131"/>
      <point x="48" y="-67" type="curve" smooth="yes"/>
      <point x="48" y="77"/>
      <point x="90" y="187"/>
      <point x="203" y="262" type="curve"/>
      <point x="212" y="304" type="line"/>
      <point x="59" y="270"/>
      <point x="-25" y="127"/>
      <point x="-25" y="-62" type="curve" smooth="yes"/>
      <point x="-25" y="-156"/>
      <point x="9" y="-252"/>
    </contour>
  </outline>
</glyph>
<glyph name="parenrightinferior" format="2">
  <advance width="200"/>
  <unicode hex="208E"/>
  <outline>
    <contour>
      <point x="-81" y="-288" type="line"/>
      <point x="71" y="-253"/>
      <point x="156" y="-118"/>
      <point x="156" y="81" type="curve" smooth="yes"/>
      <point x="156" y="172"/>
      <point x="121" y="269"/>
      <point x="44" y="304" type="curve"/>
      <point x="35" y="260" type="line"/>
      <point x="70" y="224"/>
      <point x="82" y="140"/>
      <point x="82" y="80" type="curve" smooth="yes"/>
      <point x="82" y="-61"/>
      <point x="41" y="-171"/>
      <point x="-72" y="-246" type="curve"/>
    </contour>
  </outline>
</glyph>
<glyph name="uni20A5" format="2">
  <advance width="732"/>
  <unicode hex="20A5"/>
  <anchor x="310" y="0" name="bottom"/>
  <anchor x="424" y="536" name="top"/>
  <anchor x="769" y="536" name="topright"/>
  <outline>
    <contour>
      <point x="154" y="-109" type="line"/>
      <point x="201" y="-109" type="line"/>
      <point x="603" y="666" type="line"/>
      <point x="557" y="666" type="line"/>
    </contour>
    <component base="m"/>
  </outline>
</glyph>
<glyph name="uni20A9" format="2">
  <advance width="846"/>
  <unicode hex="20A9"/>
  <anchor x="364" y="0" name="bottom"/>
  <anchor x="516" y="714" name="top"/>
  <anchor x="916" y="714" name="topright"/>
  <outline>
    <contour>
      <point x="71" y="399" type="line"/>
      <point x="854" y="399" type="line"/>
      <point x="865" y="445" type="line"/>
      <point x="81" y="445" type="line"/>
    </contour>
    <contour>
      <point x="46" y="282" type="line"/>
      <point x="829" y="282" type="line"/>
      <point x="840" y="328" type="line"/>
      <point x="56" y="328" type="line"/>
    </contour>
    <component base="W"/>
  </outline>
</glyph>
<glyph name="uni20B4" format="2">
  <advance width="454"/>
  <unicode hex="20B4"/>
  <anchor x="172" y="0" name="bottom"/>
  <anchor x="324" y="714" name="top"/>
  <outline>
    <contour>
      <point x="14" y="271" type="line"/>
      <point x="451" y="271" type="line"/>
      <point x="461" y="317" type="line"/>
      <point x="24" y="317" type="line"/>
    </contour>
    <contour>
      <point x="43" y="410" type="line"/>
      <point x="481" y="410" type="line"/>
      <point x="491" y="456" type="line"/>
      <point x="53" y="456" type="line"/>
    </contour>
    <component base="uni01A7" xOffset="4"/>
  </outline>
</glyph>
<glyph name="response" format="2">
  <advance width="540"/>
  <unicode hex="211F"/>
  <anchor x="214" y="0" name="bottom"/>
  <anchor x="366" y="714" name="top"/>
  <anchor x="615" y="714" name="topright"/>
  <outline>
    <contour>
      <point x="72" y="-120" type="line"/>
      <point x="120" y="-127" type="line"/>
      <point x="478" y="781" type="line"/>
      <point x="271" y="859" type="line"/>
      <point x="254" y="817" type="line"/>
      <point x="415" y="757" type="line"/>
    </contour>
    <component base="R"/>
  </outline>
</glyph>
<glyph name="turnedSansSerifL" format="2">
  <advance width="488"/>
  <unicode hex="2142"/>
  <outline>
    <contour>
      <point x="169" y="0" type="line"/>
      <point x="413" y="0" type="line"/>
      <point x="423" y="41" type="line"/>
      <point x="412" y="41" type="line" smooth="yes"/>
      <point x="355" y="41"/>
      <point x="350" y="60"/>
      <point x="361" y="113" type="curve" smooth="yes"/>
      <point x="464" y="600" type="line" smooth="yes"/>
      <point x="478" y="664"/>
      <point x="509" y="673"/>
      <point x="543" y="673" type="curve" smooth="yes"/>
      <point x="554" y="673" type="line"/>
      <point x="563" y="714" type="line"/>
      <point x="124" y="714" type="line"/>
      <point x="73" y="500" type="line"/>
      <point x="117" y="500" type="line"/>
      <point x="141" y="578" type="line" smooth="yes"/>
      <point x="156" y="628"/>
      <point x="183" y="665"/>
      <point x="233" y="665" type="curve" smooth="yes"/>
      <point x="385" y="665" type="line"/>
      <point x="268" y="109" type="line" smooth="yes"/>
      <point x="256" y="49"/>
      <point x="224" y="41"/>
      <point x="188" y="41" type="curve" smooth="yes"/>
      <point x="178" y="41" type="line"/>
    </contour>
  </outline>
</glyph>
<glyph name="reversedSansSerifL" format="2">
  <advance width="455"/>
  <unicode hex="2143"/>
  <outline>
    <contour>
      <point x="-25" y="0" type="line"/>
      <point x="380" y="0" type="line"/>
      <point x="389" y="41" type="line"/>
      <point x="378" y="41" type="line" smooth="yes"/>
      <point x="319" y="41"/>
      <point x="316" y="62"/>
      <point x="328" y="119" type="curve" smooth="yes"/>
      <point x="430" y="600" type="line" smooth="yes"/>
      <point x="444" y="664"/>
      <point x="475" y="673"/>
      <point x="510" y="673" type="curve" smooth="yes"/>
      <point x="521" y="673" type="line"/>
      <point x="530" y="714" type="line"/>
      <point x="271" y="714" type="line"/>
      <point x="261" y="673" type="line"/>
      <point x="288" y="673" type="line" smooth="yes"/>
      <point x="340" y="673"/>
      <point x="351" y="656"/>
      <point x="337" y="597" type="curve" smooth="yes"/>
      <point x="222" y="49" type="line"/>
      <point x="111" y="49" type="line" smooth="yes"/>
      <point x="62" y="49"/>
      <point x="50" y="72"/>
      <point x="49" y="109" type="curve" smooth="yes"/>
      <point x="49" y="172" type="line"/>
      <point x="7" y="172" type="line"/>
    </contour>
  </outline>
</glyph>
<glyph name="uni2C63" format="2">
  <advance width="506"/>
  <unicode hex="2C63"/>
  <anchor x="196" y="0" name="bottom"/>
  <anchor x="348" y="714" name="top"/>
  <anchor x="581" y="714" name="topright"/>
  <outline>
    <contour>
      <point x="82" y="474" type="line"/>
      <point x="341" y="474" type="line"/>
      <point x="352" y="522" type="line"/>
      <point x="93" y="522" type="line"/>
    </contour>
    <component base="P"/>
  </outline>
</glyph>
<glyph name="uni2C65" format="2">
  <advance width="481"/>
  <unicode hex="2C65"/>
  <anchor x="140" y="-207" name="bottom"/>
  <anchor x="336" y="714" name="top"/>
  <anchor x="518" y="536" name="topright"/>
  <outline>
    <contour>
      <point x="65" y="-207" type="line"/>
      <point x="108" y="-207" type="line"/>
      <point x="396" y="714" type="line"/>
      <point x="353" y="714" type="line"/>
    </contour>
    <component base="a"/>
  </outline>
</glyph>
<glyph name="uni2DF5" format="2">
  <unicode hex="2DF5"/>
  <anchor x="57" y="536" name="_top"/>
  <anchor x="74" y="619" name="bottom"/>
  <anchor x="119" y="835" name="top"/>
  <outline>
    <contour>
      <point x="268" y="834" type="line"/>
      <point x="92" y="834" type="line" smooth="yes"/>
      <point x="-10" y="834"/>
      <point x="-58" y="756"/>
      <point x="-58" y="693" type="curve" smooth="yes"/>
      <point x="-58" y="642"/>
      <point x="-27" y="616"/>
      <point x="12" y="616" type="curve" smooth="yes"/>
      <point x="56" y="616"/>
      <point x="78" y="644"/>
      <point x="78" y="660" type="curve" smooth="yes"/>
      <point x="78" y="664"/>
      <point x="76" y="667"/>
      <point x="74" y="669" type="curve"/>
      <point x="64" y="655"/>
      <point x="47" y="641"/>
      <point x="22" y="641" type="curve" smooth="yes"/>
      <point x="-3" y="641"/>
      <point x="-17" y="661"/>
      <point x="-17" y="695" type="curve" smooth="yes"/>
      <point x="-17" y="746"/>
      <point x="16" y="816"/>
      <point x="88" y="816" type="curve" smooth="yes"/>
      <point x="157" y="816" type="line"/>
      <point x="125" y="663" type="line" smooth="yes"/>
      <point x="119" y="640"/>
      <point x="107" y="636"/>
      <point x="91" y="636" type="curve" smooth="yes"/>
      <point x="86" y="636" type="line"/>
      <point x="83" y="620" type="line"/>
      <point x="189" y="620" type="line"/>
      <point x="193" y="636" type="line"/>
      <point x="187" y="636" type="line" smooth="yes"/>
      <point x="171" y="636"/>
      <point x="159" y="640"/>
      <point x="164" y="663" type="curve" smooth="yes"/>
      <point x="196" y="816" type="line"/>
      <point x="218" y="816" type="line" smooth="yes"/>
      <point x="237" y="816"/>
      <point x="242" y="809"/>
      <point x="239" y="783" type="curve"/>
      <point x="239" y="769" type="line"/>
      <point x="258" y="769" type="line"/>
    </contour>
  </outline>
</glyph>
<glyph name="uniA671" format="2">
  <unicode hex="A671"/>
  <outline>
    <contour>
      <point x="-210" y="579" type="line"/>
      <point x="-167" y="579" type="line"/>
      <point x="-167" y="679" type="line"/>
      <point x="192" y="679" type="line"/>
      <point x="192" y="579" type="line"/>
      <point x="235" y="579" type="line"/>
      <point x="235" y="743" type="line"/>
      <point x="-210" y="743" type="line"/>
    </contour>
    <contour>
      <point x="-210" y="-207" type="line"/>
      <point x="235" y="-207" type="line"/>
      <point x="235" y="-43" type="line"/>
      <point x="192" y="-43" type="line"/>
      <point x="192" y="-143" type="line"/>
      <point x="-167" y="-143" type="line"/>
      <point x="-167" y="-43" type="line"/>
      <point x="-210" y="-43" type="line"/>
    </contour>
  </outline>
</glyph>
<glyph name="uniA741" format="2">
  <advance width="466"/>
  <unicode hex="A741"/>
  <anchor x="174" y="0" name="bottom"/>
  <anchor x="336" y="760" name="top"/>
  <anchor x="551" y="760" name="topright"/>
  <outline>
    <contour>
      <point x="89" y="594" type="line"/>
      <point x="331" y="594" type="line"/>
      <point x="343" y="640" type="line"/>
      <point x="100" y="640" type="line"/>
    </contour>
    <component base="k"/>
  </outline>
</glyph>
<glyph name="uniA744" format="2">
  <advance width="569"/>
  <unicode hex="A744"/>
  <anchor x="228" y="0" name="bottom"/>
  <anchor x="380" y="714" name="top"/>
  <anchor x="644" y="714" name="topright"/>
  <outline>
    <contour>
      <point x="270" y="116" type="line"/>
      <point x="500" y="285" type="line"/>
      <point x="474" y="321" type="line"/>
      <point x="243" y="152" type="line"/>
    </contour>
    <contour>
      <point x="99" y="549" type="line"/>
      <point x="343" y="549" type="line"/>
      <point x="355" y="597" type="line"/>
      <point x="111" y="597" type="line"/>
    </contour>
    <component base="K"/>
  </outline>
</glyph>
<glyph name="uniA745" format="2">
  <advance width="467"/>
  <unicode hex="A745"/>
  <anchor x="179" y="0" name="bottom"/>
  <anchor x="341" y="760" name="top"/>
  <anchor x="551" y="760" name="topright"/>
  <outline>
    <contour>
      <point x="207" y="79" type="line"/>
      <point x="429" y="224" type="line"/>
      <point x="407" y="257" type="line"/>
      <point x="185" y="112" type="line"/>
    </contour>
    <contour>
      <point x="89" y="594" type="line"/>
      <point x="331" y="594" type="line"/>
      <point x="343" y="640" type="line"/>
      <point x="100" y="640" type="line"/>
    </contour>
    <component base="k"/>
  </outline>
</glyph>
<glyph name="uniA748" format="2">
  <advance width="511"/>
  <unicode hex="A748"/>
  <anchor x="195" y="0" name="bottom"/>
  <anchor x="290" y="357" name="center"/>
  <anchor x="347" y="714" name="top"/>
  <anchor x="580" y="714" name="topright"/>
  <outline>
    <contour>
      <point x="102" y="549" type="line"/>
      <point x="347" y="549" type="line"/>
      <point x="357" y="597" type="line"/>
      <point x="113" y="597" type="line"/>
    </contour>
    <component base="L"/>
  </outline>
</glyph>
<glyph name="uniA749" format="2">
  <advance width="254"/>
  <unicode hex="A749"/>
  <anchor x="70" y="0" name="bottom"/>
  <anchor x="184" y="268" name="center"/>
  <anchor x="232" y="760" name="top"/>
  <anchor x="339" y="760" name="topright"/>
  <outline>
    <contour>
      <point x="85" y="594" type="line"/>
      <point x="327" y="594" type="line"/>
      <point x="339" y="640" type="line"/>
      <point x="97" y="640" type="line"/>
    </contour>
    <component base="l"/>
  </outline>
</glyph>
<glyph name="uniA74A" format="2">
  <advance width="604"/>
  <unicode hex="A74A"/>
  <anchor x="246" y="0" name="bottom"/>
  <anchor x="341" y="357" name="center"/>
  <anchor x="398" y="714" name="top"/>
  <anchor x="679" y="714" name="topright"/>
  <outline>
    <contour>
      <point x="17" y="348" type="line"/>
      <point x="625" y="348" type="line"/>
      <point x="637" y="398" type="line"/>
      <point x="27" y="398" type="line"/>
    </contour>
    <component base="O"/>
  </outline>
</glyph>
<glyph name="uniA750" format="2">
  <advance width="496"/>
  <unicode hex="A750"/>
  <anchor x="113" y="0" name="bottom"/>
  <anchor x="348" y="714" name="top"/>
  <anchor x="581" y="714" name="topright"/>
  <outline>
    <contour>
      <point x="12" y="137" type="line"/>
      <point x="272" y="137" type="line"/>
      <point x="283" y="185" type="line"/>
      <point x="23" y="185" type="line"/>
    </contour>
    <component base="P"/>
  </outline>
</glyph>
<glyph name="uniA751" format="2">
  <advance width="478"/>
  <unicode hex="A751"/>
  <anchor x="40" y="-240" name="bottom"/>
  <anchor x="293" y="536" name="top"/>
  <anchor x="508" y="536" name="topright"/>
  <outline>
    <contour>
      <point x="-67" y="-120" type="line"/>
      <point x="193" y="-120" type="line"/>
      <point x="203" y="-74" type="line"/>
      <point x="-56" y="-74" type="line"/>
    </contour>
    <component base="p"/>
  </outline>
</glyph>
<glyph name="uniA757" format="2">
  <advance width="463"/>
  <unicode hex="A757"/>
  <anchor x="123" y="-240" name="bottom"/>
  <anchor x="288" y="536" name="top"/>
  <anchor x="500" y="536" name="topright"/>
  <outline>
    <contour>
      <point x="153" y="-119" type="line"/>
      <point x="404" y="-119" type="line"/>
      <point x="415" y="-73" type="line"/>
      <point x="163" y="-73" type="line"/>
    </contour>
    <component base="q"/>
  </outline>
</glyph>
<glyph name="uniA75F" format="2">
  <advance width="441"/>
  <unicode hex="A75F"/>
  <anchor x="163" y="0" name="bottom"/>
  <anchor x="277" y="536" name="top"/>
  <anchor x="478" y="536" name="topright"/>
  <outline>
    <contour>
      <point x="9" y="-50" type="line"/>
      <point x="53" y="-50" type="line"/>
      <point x="335" y="596" type="line"/>
      <point x="291" y="596" type="line"/>
    </contour>
    <component base="v"/>
  </outline>
</glyph>
<glyph name="uniA764" format="2">
  <advance width="490"/>
  <unicode hex="A764"/>
  <outline>
    <contour>
      <point x="-17" y="0" type="line"/>
      <point x="233" y="0" type="line"/>
      <point x="242" y="41" type="line"/>
      <point x="225" y="41" type="line" smooth="yes"/>
      <point x="193" y="41"/>
      <point x="170" y="47"/>
      <point x="170" y="79" type="curve" smooth="yes"/>
      <point x="170" y="86"/>
      <point x="171" y="101"/>
      <point x="175" y="113" type="curve" smooth="yes"/>
      <point x="182" y="144" type="line"/>
      <point x="242" y="144" type="line" smooth="yes"/>
      <point x="446" y="144"/>
      <point x="491" y="294"/>
      <point x="491" y="367" type="curve" smooth="yes"/>
      <point x="491" y="488"/>
      <point x="423" y="527"/>
      <point x="304" y="527" type="curve" smooth="yes"/>
      <point x="261" y="527" type="line"/>
      <point x="271" y="576" type="line"/>
      <point x="354" y="576" type="line"/>
      <point x="365" y="624" type="line"/>
      <point x="284" y="624" type="line"/>
      <point x="300" y="666"/>
      <point x="327" y="673"/>
      <point x="358" y="673" type="curve" smooth="yes"/>
      <point x="375" y="673" type="line"/>
      <point x="384" y="714" type="line"/>
      <point x="133" y="714" type="line"/>
      <point x="124" y="673" type="line"/>
      <point x="135" y="673" type="line" smooth="yes"/>
      <point x="156" y="673"/>
      <point x="192" y="668"/>
      <point x="190" y="624" type="curve"/>
      <point x="114" y="624" type="line"/>
      <point x="104" y="576" type="line"/>
      <point x="180" y="576" type="line"/>
      <point x="83" y="114" type="line"/>
      <point x="70" y="50"/>
      <point x="38" y="41"/>
      <point x="3" y="41" type="curve" smooth="yes"/>
      <point x="-8" y="41" type="line"/>
    </contour>
    <contour>
      <point x="193" y="189" type="line"/>
      <point x="251" y="480" type="line"/>
      <point x="283" y="480" type="line" smooth="yes"/>
      <point x="350" y="480"/>
      <point x="395" y="454"/>
      <point x="395" y="362" type="curve" smooth="yes"/>
      <point x="395" y="231"/>
      <point x="345" y="189"/>
      <point x="233" y="189" type="curve" smooth="yes"/>
    </contour>
  </outline>
</glyph>
<glyph name="uniA765" format="2">
  <advance width="463"/>
  <unicode hex="A765"/>
  <anchor x="124" y="-240" name="bottom"/>
  <anchor x="337" y="760" name="top"/>
  <outline>
    <contour>
      <point x="77" y="595" type="line"/>
      <point x="333" y="595" type="line"/>
      <point x="343" y="641" type="line"/>
      <point x="86" y="641" type="line"/>
    </contour>
    <component base="thorn"/>
  </outline>
</glyph>
<glyph name="uniA767" format="2">
  <advance width="463"/>
  <unicode hex="A767"/>
  <anchor x="124" y="-240" name="bottom"/>
  <anchor x="337" y="760" name="top"/>
  <outline>
    <contour>
      <point x="-76" y="-118" type="line"/>
      <point x="179" y="-118" type="line"/>
      <point x="189" y="-73" type="line"/>
      <point x="-66" y="-73" type="line"/>
    </contour>
    <component base="thorn"/>
  </outline>
</glyph>
<glyph name="uniA799" format="2">
  <advance width="273"/>
  <unicode hex="A799"/>
  <anchor x="-75" y="-240" name="bottom"/>
  <anchor x="326" y="770" name="top"/>
  <anchor x="454" y="770" name="topright"/>
  <outline>
    <contour>
      <point x="17" y="262" type="line"/>
      <point x="275" y="262" type="line"/>
      <point x="285" y="311" type="line"/>
      <point x="27" y="311" type="line"/>
    </contour>
    <component base="f"/>
  </outline>
</glyph>
<glyph name="uniA7A2" format="2">
  <advance width="569"/>
  <unicode hex="A7A2"/>
  <anchor x="228" y="0" name="bottom"/>
  <anchor x="380" y="714" name="top"/>
  <anchor x="644" y="714" name="topright"/>
  <outline>
    <contour>
      <point x="-3" y="103" type="line"/>
      <point x="533" y="242" type="line"/>
      <point x="543" y="291" type="line"/>
      <point x="7" y="152" type="line"/>
    </contour>
    <component base="K"/>
  </outline>
</glyph>
<glyph name="uniA7A3" format="2">
  <advance width="466"/>
  <unicode hex="A7A3"/>
  <anchor x="177" y="0" name="bottom"/>
  <anchor x="339" y="760" name="top"/>
  <anchor x="551" y="760" name="topright"/>
  <outline>
    <contour>
      <point x="-5" y="73" type="line"/>
      <point x="442" y="178" type="line"/>
      <point x="450" y="218" type="line"/>
      <point x="4" y="113" type="line"/>
    </contour>
    <component base="k"/>
  </outline>
</glyph>
<glyph name="uniA7A4" format="2">
  <advance width="616"/>
  <unicode hex="A7A4"/>
  <anchor x="251" y="0" name="bottom"/>
  <anchor x="403" y="714" name="top"/>
  <anchor x="691" y="714" name="topright"/>
  <outline>
    <contour>
      <point x="39" y="266" type="line"/>
      <point x="649" y="428" type="line"/>
      <point x="659" y="477" type="line"/>
      <point x="49" y="315" type="line"/>
    </contour>
    <component base="N"/>
  </outline>
</glyph>
<glyph name="uniA7A6" format="2">
  <advance width="541"/>
  <unicode hex="A7A6"/>
  <anchor x="214" y="0" name="bottom"/>
  <anchor x="366" y="714" name="top"/>
  <anchor x="615" y="714" name="topright"/>
  <outline>
    <contour>
      <point x="71" y="422" type="line"/>
      <point x="598" y="554" type="line"/>
      <point x="608" y="603" type="line"/>
      <point x="81" y="471" type="line"/>
    </contour>
    <component base="R"/>
  </outline>
</glyph>
<glyph name="uniA7A7" format="2">
  <advance width="392"/>
  <unicode hex="A7A7"/>
  <anchor x="81" y="0" name="bottom"/>
  <anchor x="273" y="536" name="top"/>
  <anchor x="429" y="536" name="topright"/>
  <outline>
    <contour>
      <point x="16" y="190" type="line"/>
      <point x="294" y="254" type="line"/>
      <point x="304" y="295" type="line"/>
      <point x="26" y="230" type="line"/>
    </contour>
    <component base="r"/>
  </outline>
</glyph>
<glyph name="uniA7A8" format="2">
  <advance width="445"/>
  <unicode hex="A7A8"/>
  <anchor x="166" y="0" name="bottom"/>
  <anchor x="318" y="714" name="top"/>
  <anchor x="520" y="714" name="topright"/>
  <outline>
    <contour>
      <point x="53" y="296" type="line"/>
      <point x="451" y="392" type="line"/>
      <point x="461" y="441" type="line"/>
      <point x="63" y="345" type="line"/>
    </contour>
    <component base="S"/>
  </outline>
</glyph>
<glyph name="uniA7AE" format="2">
  <advance width="453"/>
  <unicode hex="A7AE"/>
  <outline>
    <contour>
      <point x="-1" y="0" type="line"/>
      <point x="383" y="0" type="line"/>
      <point x="423" y="159" type="line"/>
      <point x="380" y="159" type="line"/>
      <point x="368" y="126" type="line" smooth="yes"/>
      <point x="347" y="63"/>
      <point x="333" y="45"/>
      <point x="298" y="45" type="curve" smooth="yes"/>
      <point x="245" y="45" type="line"/>
      <point x="338" y="491" type="line"/>
      <point x="390" y="491" type="line" smooth="yes"/>
      <point x="419" y="491"/>
      <point x="430" y="478"/>
      <point x="430" y="438" type="curve" smooth="yes"/>
      <point x="430" y="425"/>
      <point x="428" y="407"/>
      <point x="424" y="377" type="curve"/>
      <point x="467" y="377" type="line"/>
      <point x="497" y="536" type="line"/>
      <point x="113" y="536" type="line"/>
      <point x="73" y="377" type="line"/>
      <point x="116" y="377" type="line"/>
      <point x="128" y="410" type="line" smooth="yes"/>
      <point x="149" y="473"/>
      <point x="163" y="491"/>
      <point x="198" y="491" type="curve" smooth="yes"/>
      <point x="251" y="491" type="line"/>
      <point x="158" y="45" type="line"/>
      <point x="105" y="45" type="line" smooth="yes"/>
      <point x="74" y="45"/>
      <point x="67" y="62"/>
      <point x="68" y="108" type="curve" smooth="yes"/>
      <point x="68" y="117"/>
      <point x="69" y="131"/>
      <point x="72" y="159" type="curve"/>
      <point x="29" y="159" type="line"/>
    </contour>
  </outline>
</glyph>
<glyph name="uniA7B8" format="2">
  <advance width="573"/>
  <unicode hex="A7B8"/>
  <anchor x="298" y="0" name="bottom"/>
  <anchor x="298" y="714" name="top"/>
  <anchor x="664" y="714" name="topright"/>
  <outline>
    <contour>
      <point x="22" y="-11" type="line"/>
      <point x="71" y="-11" type="line"/>
      <point x="665" y="726" type="line"/>
      <point x="616" y="726" type="line"/>
    </contour>
    <component base="U"/>
  </outline>
</glyph>
<glyph name="uniA7B9" format="2">
  <advance width="510"/>
  <unicode hex="A7B9"/>
  <anchor x="190" y="0" name="bottom"/>
  <anchor x="304" y="536" name="top"/>
  <anchor x="532" y="536" name="topright"/>
  <outline>
    <contour>
      <point x="-28" y="-11" type="line"/>
      <point x="21" y="-11" type="line"/>
      <point x="536" y="582" type="line"/>
      <point x="487" y="582" type="line"/>
    </contour>
    <component base="u"/>
  </outline>
</glyph>
<glyph name="uniA7C8" format="2">
  <advance width="481"/>
  <unicode hex="A7C8"/>
  <anchor x="184" y="0" name="bottom"/>
  <anchor x="298" y="268" name="center"/>
  <anchor x="346" y="760" name="top"/>
  <anchor x="558" y="760" name="topright"/>
  <outline>
    <contour>
      <point x="84" y="251" type="line"/>
      <point x="371" y="251" type="line"/>
      <point x="371" y="291" type="line"/>
      <point x="84" y="291" type="line"/>
    </contour>
    <component base="d"/>
  </outline>
</glyph>
<glyph name="uniA7C9" format="2">
  <advance width="445"/>
  <unicode hex="A7C9"/>
  <anchor x="166" y="0" name="bottom"/>
  <anchor x="318" y="714" name="top"/>
  <anchor x="520" y="714" name="topright"/>
  <outline>
    <contour>
      <point x="56" y="344" type="line"/>
      <point x="446" y="344" type="line"/>
      <point x="456" y="388" type="line"/>
      <point x="66" y="388" type="line"/>
    </contour>
    <component base="S"/>
  </outline>
</glyph>
<glyph name="uniA7FF" format="2">
  <advance width="839"/>
  <unicode hex="A7FF"/>
  <outline>
    <contour>
      <point x="84" y="-9" type="curve" smooth="yes"/>
      <point x="113" y="-9"/>
      <point x="141" y="17"/>
      <point x="145" y="73" type="curve"/>
      <point x="119" y="72"/>
      <point x="101" y="95"/>
      <point x="101" y="134" type="curve" smooth="yes"/>
      <point x="101" y="227"/>
      <point x="178" y="381"/>
      <point x="261" y="475" type="curve"/>
      <point x="265" y="475" type="line"/>
      <point x="274" y="-8" type="line"/>
      <point x="359" y="4" type="line"/>
      <point x="403" y="77"/>
      <point x="522" y="385"/>
      <point x="543" y="426" type="curve"/>
      <point x="542" y="348"/>
      <point x="540" y="114"/>
      <point x="535" y="-9" type="curve"/>
      <point x="620" y="2" type="line"/>
      <point x="747" y="204"/>
      <point x="843" y="362"/>
      <point x="843" y="480" type="curve" smooth="yes"/>
      <point x="843" y="525"/>
      <point x="827" y="546"/>
      <point x="800" y="546" type="curve" smooth="yes"/>
      <point x="773" y="546"/>
      <point x="752" y="519"/>
      <point x="747" y="489" type="curve"/>
      <point x="767" y="480"/>
      <point x="781" y="463"/>
      <point x="781" y="433" type="curve" smooth="yes"/>
      <point x="781" y="344"/>
      <point x="699" y="172"/>
      <point x="623" y="70" type="curve"/>
      <point x="617" y="70" type="line"/>
      <point x="620" y="141"/>
      <point x="623" y="467"/>
      <point x="619" y="531" type="curve"/>
      <point x="545" y="527" type="line"/>
      <point x="491" y="379"/>
      <point x="411" y="187"/>
      <point x="356" y="76" type="curve"/>
      <point x="354" y="76" type="line"/>
      <point x="344" y="541" type="line"/>
      <point x="261" y="532" type="line"/>
      <point x="172" y="444"/>
      <point x="34" y="234"/>
      <point x="34" y="67" type="curve" smooth="yes"/>
      <point x="34" y="15"/>
      <point x="54" y="-9"/>
    </contour>
  </outline>
</glyph>
<glyph name="uniAB30" format="2">
  <advance width="492"/>
  <unicode hex="AB30"/>
  <anchor x="189" y="0" name="bottom"/>
  <anchor x="303" y="536" name="top"/>
  <outline>
    <contour>
      <point x="-10" y="262" type="line"/>
      <point x="475" y="262" type="line"/>
      <point x="486" y="308" type="line"/>
      <point x="0" y="308" type="line"/>
    </contour>
    <component base="uni0251"/>
  </outline>
</glyph>
<glyph name="uniAB41" format="2">
  <advance width="712"/>
  <unicode hex="AB41"/>
  <anchor x="440" y="536" name="bottom"/>
  <anchor x="326" y="0" name="top"/>
  <outline>
    <contour>
      <point x="277" y="-59" type="line"/>
      <point x="328" y="-59" type="line"/>
      <point x="699" y="576" type="line"/>
      <point x="648" y="576" type="line"/>
    </contour>
    <component base="oe" xScale="-1" yScale="-1" xOffset="733" yOffset="536"/>
  </outline>
</glyph>
<glyph name="uniAB42" format="2">
  <advance width="700"/>
  <unicode hex="AB42"/>
  <anchor x="440" y="536" name="bottom"/>
  <anchor x="326" y="0" name="top"/>
  <outline>
    <contour>
      <point x="339" y="259" type="line"/>
      <point x="614" y="259" type="line"/>
      <point x="616" y="304" type="line"/>
      <point x="341" y="304" type="line"/>
    </contour>
    <component base="oe" xScale="-1" yScale="-1" xOffset="733" yOffset="536"/>
  </outline>
</glyph>
<glyph name="uniAB44" format="2">
  <advance width="719"/>
  <unicode hex="AB44"/>
  <outline>
    <contour>
      <point x="275" y="-59" type="line"/>
      <point x="327" y="-59" type="line"/>
      <point x="719" y="576" type="line"/>
      <point x="669" y="576" type="line"/>
    </contour>
    <component base="uniAB43"/>
  </outline>
</glyph>
<glyph name="uniAB4F" format="2">
  <advance width="493"/>
  <unicode hex="AB4F"/>
  <outline>
    <contour>
      <point x="15" y="261" type="line"/>
      <point x="495" y="261" type="line"/>
      <point x="505" y="308" type="line"/>
      <point x="25" y="308" type="line"/>
    </contour>
    <component base="uniAB4E"/>
  </outline>
</glyph>
<glyph name="uniAB60" format="2">
  <advance width="648"/>
  <unicode hex="AB60"/>
  <outline>
    <contour>
      <point x="439" y="-10" type="curve" smooth="yes"/>
      <point x="544" y="-10"/>
      <point x="621" y="54"/>
      <point x="621" y="176" type="curve" smooth="yes"/>
      <point x="621" y="255"/>
      <point x="579" y="309"/>
      <point x="484" y="309" type="curve" smooth="yes"/>
      <point x="467" y="309"/>
      <point x="438" y="305"/>
      <point x="406" y="300" type="curve"/>
      <point x="455" y="536" type="line"/>
      <point x="296" y="536" type="line"/>
      <point x="287" y="495" type="line"/>
      <point x="296" y="495" type="line" smooth="yes"/>
      <point x="323" y="495"/>
      <point x="347" y="488"/>
      <point x="347" y="451" type="curve" smooth="yes"/>
      <point x="347" y="444"/>
      <point x="343" y="423"/>
      <point x="339" y="404" type="curve" smooth="yes"/>
      <point x="305" y="237" type="line" smooth="yes"/>
      <point x="299" y="213"/>
      <point x="290" y="168"/>
      <point x="290" y="131" type="curve" smooth="yes"/>
      <point x="290" y="32"/>
      <point x="344" y="-10"/>
    </contour>
    <contour>
      <point x="132" y="-10" type="curve" smooth="yes"/>
      <point x="184" y="-10"/>
      <point x="221" y="24"/>
      <point x="245" y="49" type="curve"/>
      <point x="230" y="77" type="line"/>
      <point x="210" y="62"/>
      <point x="192" y="50"/>
      <point x="175" y="50" type="curve" smooth="yes"/>
      <point x="158" y="50"/>
      <point x="149" y="66"/>
      <point x="149" y="96" type="curve" smooth="yes"/>
      <point x="149" y="125"/>
      <point x="160" y="186"/>
      <point x="168" y="223" type="curve" smooth="yes"/>
      <point x="234" y="536" type="line"/>
      <point x="79" y="536" type="line"/>
      <point x="70" y="495" type="line"/>
      <point x="81" y="495" type="line" smooth="yes"/>
      <point x="109" y="495"/>
      <point x="127" y="486"/>
      <point x="127" y="458" type="curve" smooth="yes"/>
      <point x="127" y="451"/>
      <point x="125" y="443"/>
      <point x="123" y="434" type="curve" smooth="yes"/>
      <point x="82" y="231" type="line" smooth="yes"/>
      <point x="74" y="194"/>
      <point x="60" y="117"/>
      <point x="60" y="79" type="curve" smooth="yes"/>
      <point x="60" y="31"/>
      <point x="84" y="-10"/>
    </contour>
    <contour>
      <point x="443" y="37" type="curve" smooth="yes"/>
      <point x="402" y="37"/>
      <point x="379" y="69"/>
      <point x="379" y="131" type="curve" smooth="yes"/>
      <point x="379" y="164"/>
      <point x="389" y="224"/>
      <point x="395" y="250" type="curve"/>
      <point x="408" y="252"/>
      <point x="431" y="257"/>
      <point x="460" y="257" type="curve" smooth="yes"/>
      <point x="507" y="257"/>
      <point x="529" y="226"/>
      <point x="529" y="170" type="curve" smooth="yes"/>
      <point x="529" y="93"/>
      <point x="501" y="37"/>
    </contour>
  </outline>
</glyph>
<glyph name="uniFE20" format="2">
  <unicode hex="FE20"/>
  <anchor x="59" y="536" name="_top"/>
  <outline>
    <contour>
      <point x="-211" y="595" type="curve"/>
      <point x="-169" y="595" type="line"/>
      <point x="-114" y="663"/>
      <point x="-29" y="711"/>
      <point x="96" y="711" type="curve"/>
      <point x="98" y="768" type="line"/>
      <point x="-58" y="768"/>
      <point x="-155" y="699"/>
    </contour>
  </outline>
</glyph>
<glyph name="uniFE21" format="2">
  <unicode hex="FE21"/>
  <anchor x="44" y="536" name="_top"/>
  <outline>
    <contour>
      <point x="344" y="595" type="curve"/>
      <point x="388" y="595" type="line"/>
      <point x="349" y="714"/>
      <point x="259" y="768"/>
      <point x="119" y="768" type="curve" smooth="yes"/>
      <point x="93" y="768" type="line"/>
      <point x="90" y="711" type="line"/>
      <point x="115" y="711" type="line" smooth="yes"/>
      <point x="228" y="711"/>
      <point x="301" y="680"/>
    </contour>
  </outline>
</glyph>
<glyph name="uniFE22" format="2">
  <unicode hex="FE22"/>
  <anchor x="79" y="536" name="_top"/>
  <outline>
    <contour>
      <point x="-217" y="595" type="curve"/>
      <point x="-178" y="595" type="line"/>
      <point x="-160" y="642"/>
      <point x="-131" y="666"/>
      <point x="-64" y="666" type="curve" smooth="yes"/>
      <point x="-12" y="666"/>
      <point x="27" y="655"/>
      <point x="99" y="626" type="curve"/>
      <point x="99" y="687" type="line"/>
      <point x="51" y="706"/>
      <point x="3" y="724"/>
      <point x="-59" y="724" type="curve" smooth="yes"/>
      <point x="-153" y="724"/>
      <point x="-200" y="669"/>
    </contour>
  </outline>
</glyph>
<glyph name="uniFE23" format="2">
  <unicode hex="FE23"/>
  <anchor x="58" y="536" name="_top"/>
  <outline>
    <contour>
      <point x="245" y="597" type="curve" smooth="yes"/>
      <point x="342" y="597"/>
      <point x="385" y="642"/>
      <point x="406" y="726" type="curve"/>
      <point x="367" y="726" type="line"/>
      <point x="351" y="675"/>
      <point x="319" y="656"/>
      <point x="254" y="656" type="curve" smooth="yes"/>
      <point x="208" y="656"/>
      <point x="149" y="666"/>
      <point x="91" y="690" type="curve"/>
      <point x="90" y="630" type="line"/>
      <point x="135" y="612"/>
      <point x="186" y="597"/>
    </contour>
  </outline>
</glyph>
<glyph name="combiningconjoiningmacron" format="2">
  <unicode hex="FE26"/>
  <anchor x="57" y="536" name="_top"/>
  <outline>
    <contour>
      <point x="-204" y="681" type="line"/>
      <point x="378" y="681" type="line"/>
      <point x="392" y="737" type="line"/>
      <point x="-190" y="737" type="line"/>
    </contour>
  </outline>
</glyph>
<glyph name="uniFE27" format="2">
  <unicode hex="FE27"/>
  <anchor x="-57" y="0" name="_bottom"/>
  <outline>
    <contour>
      <point x="-102" y="-206" type="curve"/>
      <point x="-88" y="-148" type="line"/>
      <point x="-218" y="-148"/>
      <point x="-301" y="-106"/>
      <point x="-330" y="-26" type="curve"/>
      <point x="-368" y="-26" type="line"/>
      <point x="-337" y="-152"/>
      <point x="-248" y="-206"/>
    </contour>
  </outline>
</glyph>
<glyph name="uniFE29" format="2">
  <unicode hex="FE29"/>
  <anchor x="-57" y="0" name="_bottom"/>
  <outline>
    <contour>
      <point x="-409" y="-195" type="curve"/>
      <point x="-371" y="-195" type="line"/>
      <point x="-339" y="-142"/>
      <point x="-300" y="-126"/>
      <point x="-255" y="-126" type="curve" smooth="yes"/>
      <point x="-214" y="-126"/>
      <point x="-165" y="-139"/>
      <point x="-93" y="-165" type="curve"/>
      <point x="-77" y="-97" type="line"/>
      <point x="-132" y="-78"/>
      <point x="-187" y="-68"/>
      <point x="-239" y="-68" type="curve" smooth="yes"/>
      <point x="-313" y="-68"/>
      <point x="-375" y="-115"/>
    </contour>
  </outline>
</glyph>
<glyph name="uniFE2C" format="2">
  <unicode hex="FE2C"/>
  <anchor x="-57" y="0" name="_bottom"/>
  <outline>
    <contour>
      <point x="-405" y="-200" type="line"/>
      <point x="-100" y="-200" type="line"/>
      <point x="-87" y="-143" type="line"/>
      <point x="-392" y="-143" type="line"/>
    </contour>
  </outline>
</glyph>
<glyph name="uniFE2E" format="2">
  <unicode hex="FE2E"/>
  <anchor x="-7" y="536" name="_top"/>
  <outline>
    <contour>
      <point x="4" y="570" type="curve" smooth="yes"/>
      <point x="28" y="570"/>
      <point x="40" y="585"/>
      <point x="45" y="616" type="curve"/>
      <point x="183" y="616" type="line"/>
      <point x="186" y="668" type="line"/>
      <point x="10" y="668" type="line" smooth="yes"/>
      <point x="-22" y="668"/>
      <point x="-33" y="639"/>
      <point x="-33" y="610" type="curve" smooth="yes"/>
      <point x="-33" y="584"/>
      <point x="-21" y="570"/>
    </contour>
  </outline>
</glyph>
<glyph name="uniFE2F" format="2">
  <unicode hex="FE2F"/>
  <anchor x="127" y="536" name="_top"/>
  <outline>
    <contour>
      <point x="-26" y="616" type="line"/>
      <point x="150" y="616" type="line" smooth="yes"/>
      <point x="180" y="616"/>
      <point x="192" y="643"/>
      <point x="192" y="667" type="curve" smooth="yes"/>
      <point x="192" y="698"/>
      <point x="179" y="713"/>
      <point x="155" y="713" type="curve" smooth="yes"/>
      <point x="132" y="713"/>
      <point x="118" y="700"/>
      <point x="113" y="668" type="curve"/>
      <point x="-24" y="668" type="line"/>
    </contour>
  </outline>
</glyph>
<glyph name="carondot" format="2">
  <advance width="462"/>
  <outline>
    <contour>
      <point x="334" y="752" type="curve" smooth="yes"/>
      <point x="357" y="752"/>
      <point x="382" y="768"/>
      <point x="382" y="815" type="curve" smooth="yes"/>
      <point x="382" y="846"/>
      <point x="364" y="861"/>
      <point x="340" y="861" type="curve" smooth="yes"/>
      <point x="311" y="861"/>
      <point x="293" y="836"/>
      <point x="293" y="799" type="curve" smooth="yes"/>
      <point x="293" y="767"/>
      <point x="309" y="752"/>
    </contour>
    <component base="caron" xOffset="71"/>
  </outline>
</glyph>
<glyph name="eth.sc" format="2">
  <advance width="500"/>
  <anchor x="189" y="0" name="bottom"/>
  <anchor x="311" y="571" name="top"/>
  <anchor x="250" y="286" name="center"/>
  <anchor x="541" y="571" name="topright"/>
  <outline>
    <contour>
      <point x="49" y="278" type="line"/>
      <point x="292" y="278" type="line"/>
      <point x="302" y="320" type="line"/>
      <point x="58" y="320" type="line"/>
    </contour>
    <component base="d.sc"/>
  </outline>
</glyph>
<glyph name="hbar.sc" format="2">
  <advance width="537"/>
  <anchor x="233" y="0" name="bottom"/>
  <anchor x="354" y="571" name="top"/>
  <anchor x="291" y="286" name="center"/>
  <anchor x="609" y="571" name="topright"/>
  <outline>
    <contour>
      <point x="69" y="400" type="line"/>
      <point x="570" y="400" type="line"/>
      <point x="578" y="438" type="line"/>
      <point x="77" y="438" type="line"/>
    </contour>
    <component base="h.sc"/>
  </outline>
</glyph>
<glyph name="oslash.sc" format="2">
  <advance width="514"/>
  <anchor x="196" y="0" name="bottom"/>
  <anchor x="318" y="571" name="top"/>
  <anchor x="257" y="286" name="center"/>
  <anchor x="555" y="571" name="topright"/>
  <outline>
    <contour>
      <point x="49" y="-32" type="line"/>
      <point x="93" y="-32" type="line"/>
      <point x="512" y="603" type="line"/>
      <point x="469" y="603" type="line"/>
    </contour>
    <component base="o.sc"/>
  </outline>
</glyph>
<glyph name="uni0268dotless" format="2">
  <advance width="254"/>
  <anchor x="70" y="0" name="bottom"/>
  <anchor x="184" y="536" name="top"/>
  <outline>
    <contour>
      <point x="15" y="262" type="line"/>
      <point x="248" y="262" type="line"/>
      <point x="259" y="308" type="line"/>
      <point x="25" y="308" type="line"/>
    </contour>
    <component base="idotless"/>
  </outline>
</glyph>
<glyph name="uni1D24.old" format="2">
  <advance width="355"/>
  <anchor x="121" y="0" name="bottom"/>
  <anchor x="235" y="536" name="top"/>
  <outline>
    <contour>
      <point x="149" y="-9" type="curve" smooth="yes"/>
      <point x="245" y="-9"/>
      <point x="300" y="41"/>
      <point x="300" y="78" type="curve" smooth="yes"/>
      <point x="300" y="91"/>
      <point x="291" y="103"/>
      <point x="279" y="110" type="curve"/>
      <point x="250" y="72"/>
      <point x="207" y="45"/>
      <point x="153" y="45" type="curve" smooth="yes"/>
      <point x="110" y="45"/>
      <point x="91" y="77"/>
      <point x="91" y="114" type="curve" smooth="yes"/>
      <point x="91" y="179"/>
      <point x="137" y="206"/>
      <point x="219" y="245" type="curve" smooth="yes"/>
      <point x="302" y="285"/>
      <point x="364" y="322"/>
      <point x="364" y="426" type="curve" smooth="yes"/>
      <point x="364" y="493"/>
      <point x="320" y="544"/>
      <point x="242" y="544" type="curve" smooth="yes"/>
      <point x="147" y="544"/>
      <point x="102" y="482"/>
      <point x="102" y="444" type="curve" smooth="yes"/>
      <point x="102" y="410"/>
      <point x="131" y="400"/>
      <point x="165" y="400" type="curve"/>
      <point x="179" y="464"/>
      <point x="203" y="498"/>
      <point x="243" y="498" type="curve" smooth="yes"/>
      <point x="269" y="498"/>
      <point x="290" y="475"/>
      <point x="290" y="433" type="curve" smooth="yes"/>
      <point x="290" y="369"/>
      <point x="244" y="342"/>
      <point x="171" y="309" type="curve" smooth="yes"/>
      <point x="78" y="265"/>
      <point x="14" y="222"/>
      <point x="14" y="113" type="curve" smooth="yes"/>
      <point x="14" y="55"/>
      <point x="52" y="-9"/>
    </contour>
  </outline>
</glyph>
